Patient4_TMGait_0pt4_03_right_26_EMG.mot
version=1
nRows=19
nColumns=33
inDegrees=no
endheader
time	1LAddLong	2LGlutMax	3LGlutMed	4LIliopsoas	5LSemiMemb	6LBicFemLong	7LRecFem	8LVastMed	9LVastLat	10LGasMed	11LTibAnt	12lTibPost	13LPeroneusLong	14LSol	15LExtDigLong	16LFlexDigLong	17RAddLong	18RGlutMax	19RGlutMed	20RIliopsoas	21RSemiMemb	22RBicFemLong	23RRecFem	24RVastMed	25RVastLat	26RGasMed	27RTibAnt	28RTibPost	29RPeroneusLong	30RSol	31RExtDigLong	32RFlexDigLong
33.56	0.010529	0.15823	-0.059662	0.001221	-0.000458	0.003052	-0.10651	0.009766	-0.067596	-0.056152	0.044403	-0.054474	0.073853	0.12131	-0.032196	0.16342	0.015259	0.07019	-0.005035	0.029907	0.074768	-0.027771	0.14908	-0.010681	0.00061	-0.017395	0.12756	-0.002594	-0.096436	0.050354	-0.004272	-0.12726
33.561	-0.001373	0.15549	-0.051727	0.008545	0.010529	-0.001831	-0.1207	0.00473	-0.11093	-0.023651	0.10315	-0.033264	0.033112	0.2562	0.075378	-0.25971	0.011139	0.063171	-0.23468	0.072327	0.07431	-0.015564	0.14755	-0.011292	0.016022	-0.010223	-0.11581	-0.014801	-0.11612	0.018005	-0.002899	-0.10361
33.562	0.000153	0.14725	-0.059814	0	0.006104	0.006561	-0.070038	0.004578	-0.12085	-0.008392	0.13458	-0.02533	-0.012054	0.094299	-0.10101	0.084381	0.014954	0.068054	-0.30807	0.009918	0.070343	-0.014648	0.13443	-0.046692	0.005646	-0.011902	0.19363	-0.007477	-0.098114	0.026245	-0.003967	-0.17273
33.563	-0.011597	0.12314	-0.055542	0.003815	0.007172	0.000153	-0.045624	0.005341	-0.087585	-0.020447	0.10773	-0.014343	0.012817	-0.11948	0.18158	-1.8179	0.024109	0.03891	-0.11307	-0.093231	0.070801	-0.011292	0.17654	-0.045624	0	-0.012054	-0.13046	-0.002136	-0.006256	-0.018616	-0.005798	-0.16907
33.564	-0.000305	0.13229	-0.020447	-0.007629	0.014496	-0.019684	-0.049744	0.006104	-0.083771	-0.011597	-0.10422	-0.080414	0.052643	-0.2121	0.17639	0.89111	0.016327	0.054016	-0.048676	-0.086365	0.058746	-0.029602	0.14343	-0.022583	0.006104	-0.006409	-0.79605	-0.011902	0.15076	-0.00412	-0.004578	-0.11749
33.565	-0.003815	0.11704	0.015106	-0.001831	0.006866	-0.009003	-0.028839	0.003967	-0.097809	-0.024872	-0.17639	0.17792	0.080414	0.040894	0.068054	0.6398	0.011597	0.026245	-0.13214	-0.048828	0.066681	-0.018311	0.12604	-0.037842	0.006866	0.000153	-0.87753	-0.002899	0.26688	-0.03479	-0.006104	-0.066681
33.566	0	0.075226	-0.024109	0.01236	0.002747	0.011139	-0.015106	0.005493	-0.016174	-0.016022	-0.16388	0.010529	0.074615	0.19073	-0.15289	-0.081329	0.017395	0.032043	-0.1355	0.015106	0.055237	-0.024261	0.13886	-0.031281	0.005951	0.009155	-0.69809	-0.002747	-0.29877	-0.11536	-0.00351	-0.018463
33.567	-0.010376	0.053864	0.007019	0.014191	-0.002747	-0.021515	-0.058441	0.017853	0.13199	-0.006409	0.014191	-0.018616	0.0354	0.089417	-0.15274	0.20081	0.005798	0.010681	-0.242	0.1088	0.053711	-0.010834	0.1268	-0.028839	0.006409	0.003357	-0.70496	-0.00351	-0.33585	-0.112	-0.00473	-0.090179
33.568	-0.001526	0.043182	-0.006714	0.012512	-0.043335	-0.017853	0.043945	0.015717	0.07019	-0.040741	0.10452	-0.010529	-0.087891	-0.007019	-0.069275	0.28915	0.00473	0.071106	-0.19669	0.10117	0.044098	-0.014191	0.15045	-0.039978	0.010071	0.010529	-0.23056	-0.003815	-0.086823	-0.12833	-0.012817	-0.11032
33.569	0.006866	0.022125	-0.041962	-0.001984	-0.037079	-0.006866	-0.008087	0.010071	0.11658	-0.06073	0.11169	-0.004272	-0.12177	-0.20813	-0.080872	-0.098419	0.002747	0.019989	0.10559	-0.001831	0.031433	-0.023499	0.11612	-0.019836	0.000153	-0.001373	-0.21637	-0.005341	0.092773	-0.11475	-0.003662	-0.13779
33.57	0.016327	0.031586	0.075073	-0.021667	-0.000305	-0.013885	-0.096283	-0.006561	0.1886	-0.085144	-0.016174	-0.001984	-0.10056	-0.29602	0.19134	-0.20783	-0.007935	0.014343	0.15335	-0.071106	0.034027	-0.015869	0.12695	-0.023651	0.011597	-0.004578	-0.072937	-0.00946	0.1033	-0.084839	-0.001373	-0.17151
33.571	-0.010529	0.000458	0.10513	0.005035	0.028229	0.034027	-0.009918	-0.006561	0.083618	-0.061035	-0.13825	0.008392	-0.017853	0.037537	0.085907	-0.30594	-0.005341	0.006409	0.19455	-0.073242	0.047913	-0.005188	0.11673	-0.027161	0.003662	-0.007935	0.12405	-0.007019	-0.02594	-0.046234	-0.004272	-0.13397
33.572	0.023193	-0.035706	0.010529	0.007477	0.013733	0.067596	0.016632	-0.007782	-0.047607	0.036316	-0.083923	0.016785	0.08255	0.031891	-0.052795	-0.040131	-0.006866	-0.013275	-0.23315	0.037689	0.044098	-0.004578	0.090942	-0.019989	0.010376	-0.006409	0.32516	-0.005188	-0.084381	0.099335	-0.005188	-0.075836
33.573	0.009155	-0.084076	0.015411	0.009613	-0.027008	0.030365	-0.020142	-0.002747	-0.048218	0.02594	-0.052032	0.000153	0.095673	-0.055389	-0.18921	0.18066	-0.005341	-0.081177	-0.37369	0.1384	0.039063	0.012054	0.092316	-0.016327	0.00473	0.000763	0.34409	-0.009003	-0.053406	0.047302	-0.001831	-0.007477
33.574	-0.046692	-0.058441	-0.001221	0.015564	-0.035248	0.011292	0.011139	-0.002747	-0.009613	0.041351	0.014648	0.085602	0.077362	-0.097504	-0.1622	0.004578	-0.004578	-0.068207	-0.13534	0.059052	0.041046	-0.014191	0.080261	-0.048676	0	0.002594	0.3746	0.000763	-0.024109	-0.018616	-0.000916	-0.022736
33.575	0.040741	-0.046387	-0.066223	-0.004272	-0.05188	-0.000916	0.014648	0.002289	-0.00946	0.021057	-0.004272	-0.011902	0.044861	-0.15427	-0.073853	-0.071564	0.001984	-0.037537	0.2742	0.036163	0.037537	-0.015564	0.065002	-0.032806	-0.007324	-0.001526	0.3154	-0.006409	0.068359	0.021667	-0.002441	-0.061951
33.576	0.032349	-0.077972	-0.084839	-0.011902	0.022583	-0.017242	-0.006561	-0.004883	-0.003357	-0.009155	-0.000458	-0.092773	0.014038	-0.059662	0.006714	-0.045471	0.00351	-0.092468	0.11002	0.17548	0.031128	-0.025787	0.075378	-0.091858	-0.007324	-0.009766	-0.068512	-0.000458	0.20096	0.088043	-0.002747	-0.069427
33.577	-0.011444	-0.067139	-0.040741	-0.011597	0.032043	0.005798	-0.021362	0	-0.00061	0.001373	0.021362	0.06424	-0.021667	-0.046082	-0.020905	-0.034637	0.010834	-0.12741	-0.018616	0.14145	0.034332	-0.015717	0.081177	-0.064392	-0.009003	-0.012665	-0.079803	-0.001984	-0.2388	0.11765	-0.002136	-0.062866
33.578	0.001373	-0.071564	-0.025635	-0.016785	-0.041046	0.00351	-0.017548	-0.004578	0.002136	-0.028992	0.011139	-0.00061	0.003815	0.040283	-0.000153	-0.02243	0.009308	-0.083466	-0.008087	0.000153	0.032654	-0.017548	0.097198	-0.055847	0.018463	-0.007019	-0.11017	-0.00351	-0.12634	0.077362	-0.004272	-0.045166
